HIERARCHY
ROOT Hips
{
	OFFSET 0.00000 0.00000 0.00000
	CHANNELS 6 Xposition Yposition Zposition Zrotation Yrotation Xrotation 
	JOINT LHipJoint
	{
		OFFSET 0 0 0
		CHANNELS 3 Zrotation Yrotation Xrotation
		JOINT LeftHip
		{
			OFFSET 1.51378 -1.89840 0.47569
			CHANNELS 3 Zrotation Yrotation Xrotation
			JOINT LeftKnee
			{
				OFFSET 2.53380 -6.96157 0.00000
				CHANNELS 3 Zrotation Yrotation Xrotation
				JOINT LeftAnkle
				{
					OFFSET 2.74874 -7.55212 0.00000
					CHANNELS 3 Zrotation Yrotation Xrotation
					JOINT LeftToe
					{
						OFFSET 0.18263 -0.50178 1.99677
						CHANNELS 3 Zrotation Yrotation Xrotation
						End Site
						{
							OFFSET 0.00000 -0.00000 1.03711
						}
					}
				}
			}
		}
	}
	JOINT RHipJoint
	{
		OFFSET 0 0 0
		CHANNELS 3 Zrotation Yrotation Xrotation
		JOINT RightHip
		{
			OFFSET -1.43037 -1.89840 0.47569
			CHANNELS 3 Zrotation Yrotation Xrotation
			JOINT RightKnee
			{
				OFFSET -2.69849 -7.41406 0.00000
				CHANNELS 3 Zrotation Yrotation Xrotation
				JOINT RightAnkle
				{
					OFFSET -2.69369 -7.40087 0.00000
					CHANNELS 3 Zrotation Yrotation Xrotation
					JOINT RightToe
					{
						OFFSET -0.28932 -0.79491 2.04975
						CHANNELS 3 Zrotation Yrotation Xrotation
						End Site
						{
							OFFSET 0.00009 0.00010 1.09536
						}
					}
				}
			}
		}
	}
	JOINT lowerback
	{
		OFFSET 0 0 0
		CHANNELS 3 Zrotation Yrotation Xrotation
		JOINT Chest
		{
			OFFSET 0.01912 1.94784 -0.02419
			CHANNELS 3 Zrotation Yrotation Xrotation
			JOINT Chest2
			{
				OFFSET 0.07565 1.94258 0.01909
				CHANNELS 3 Zrotation Yrotation Xrotation
				JOINT lowerneck
				{
					OFFSET 0 0 0
					CHANNELS 3 Zrotation Yrotation Xrotation
					JOINT Neck
					{
						OFFSET -0.07010 1.86195 0.18976
						CHANNELS 3 Zrotation Yrotation Xrotation
						JOINT Head
						{
							OFFSET 0.02284 1.86595 -0.31497
							CHANNELS 3 Zrotation Yrotation Xrotation
							End Site
							{
								OFFSET 0.01200 1.90122 -0.12838
							}
						}
					}
				}
				JOINT LeftCollar
				{
					OFFSET 0 0 0
					CHANNELS 3 Zrotation Yrotation Xrotation
					JOINT LeftShoulder
					{
						OFFSET 3.39189 0.96331 -0.10437
CHANNELS 3 Zrotation Xrotation Yrotation
						JOINT LeftElbow
						{
OFFSET 0 -5.148450 0.000000
CHANNELS 3 Zrotation Xrotation Yrotation
							JOINT LeftWrist
							{
OFFSET 0 -3.436740 -0.000000
CHANNELS 3 Zrotation Xrotation Yrotation
								JOINT lhand
								{
									OFFSET 0 0 0
CHANNELS 3 Zrotation Xrotation Yrotation
									JOINT LFingers
									{
OFFSET 0 -0.588710 0.000000
CHANNELS 3 Zrotation Xrotation Yrotation
										End Site
										{
OFFSET 0 -0.474630 0.000000
										}
									}
								}
								JOINT LThumb
								{
OFFSET 0 0.000000 0.000000
CHANNELS 3 Zrotation Xrotation Yrotation
									End Site
									{
OFFSET 0 -0.481880 0.481880
									}
								}
							}
						}
					}
				}
				JOINT RightCollar
				{
					OFFSET 0 0 0
					CHANNELS 3 Zrotation Yrotation Xrotation
					JOINT RightShoulder
					{
						OFFSET -3.34934 1.18831 -0.19928
CHANNELS 3 Zrotation Xrotation Yrotation
						JOINT RightElbow
						{
OFFSET 0 -5.421850 0.000000
CHANNELS 3 Zrotation Xrotation Yrotation
							JOINT RightWrist
							{
OFFSET 0 -3.513170 -0.000000
CHANNELS 3 Zrotation Xrotation Yrotation
								JOINT rhand
								{
									OFFSET 0 0 0
CHANNELS 3 Zrotation Xrotation Yrotation
									JOINT RFingers
									{
OFFSET 0 -0.663190 0.000000
CHANNELS 3 Zrotation Xrotation Yrotation
										End Site
										{
OFFSET 0 -0.534680 0.000000
										}
									}
								}
								JOINT RThumb
								{
OFFSET 0 0.000000 0.000000
CHANNELS 3 Zrotation Xrotation Yrotation
									End Site
									{
OFFSET 0 -0.542840 0.542840
									}
								}
							}
						}
					}
				}
			}
		}
	}
}
MOTION
Frames: 7
Frame Time: 0.008333333333333333
-10.202853 17.649382 -4.980231 391.686942 -92.211916 -404.721154 0.000000 0.000000 0.000000 -14.435950 -12.613354 -18.331096 9.432020 17.073151 57.565715 -0.482604 -15.005934 14.790890 0.166857 -2.104639 -5.811905 0.000000 0.000000 0.000000 23.209390 6.476962 -18.792881 -9.712427 -17.235984 58.510466 -0.019056 -2.532169 -3.587239 -1.460670 7.524631 -21.336409 0.188887 1.507574 1.638765 3.204131 1.931499 2.155369 3.172034 0.921840 1.188134 -2.984177 1.038131 -6.928985 -0.154660 0.569015 35.963953 0.403720 -0.761252 13.194542 0.000000 0.000000 0.000000 0.601261 38.366421 -9.389559 41.406237 -48.865777 19.496890 20.838932 -2.225296 -17.536522 0.000000 0.000000 0.000000 -7.125000 0.000000 0.000000 -6.952495 48.536356 0.612076 0.000000 0.000000 0.000000 -8.279909 30.249839 28.222131 -30.377512 -41.185848 -11.668128 -36.664041 -11.728645 -8.643731 0.000000 0.000000 0.000000 7.125000 0.000000 0.000000 -6.941538 19.290295 -4.289729
-11.210657 15.184301 -5.019072 408.399543 -92.894876 -423.184716 0.000000 0.000000 0.000000 -11.643599 -9.446520 -21.550452 16.702206 19.736631 80.317024 1.351405 -21.291260 -23.972628 0.859041 -5.909785 -16.523126 0.000000 0.000000 0.000000 24.522416 1.780723 -20.364315 -15.524269 -19.512177 76.810686 -5.224423 3.194502 -42.815007 -0.022279 0.963104 -2.647378 0.629628 1.851780 2.525464 3.678825 2.423249 1.719892 3.369111 1.176172 0.216455 -0.836530 2.470485 -11.078151 -2.708133 3.577637 35.752683 -0.538078 0.582859 14.087001 0.000000 0.000000 0.000000 -3.928470 19.602852 -2.125816 16.740846 -26.514021 3.971401 19.988623 -0.517522 -20.137734 0.000000 0.000000 0.000000 -7.125000 0.000000 0.000000 -8.537768 51.099404 1.291590 0.000000 0.000000 0.000000 -3.687098 8.748911 -6.827969 -7.499449 -12.738039 -0.838547 -33.005981 14.285923 -12.195032 0.000000 0.000000 0.000000 7.125000 0.000000 0.000000 -3.970267 15.552292 -2.766936
-11.672279 14.291257 -5.023339 445.618978 -90.965486 -461.925314 0.000000 0.000000 0.000000 -9.705763 -10.575114 -27.720522 21.263166 19.961427 93.695468 -2.547906 -33.236806 -8.722944 0.030121 -1.033277 -2.841181 0.000000 0.000000 0.000000 21.534965 0.928143 -25.822644 -21.260307 -19.961347 93.687205 -4.455559 2.894916 -39.448639 -0.365151 3.878415 -10.735170 0.222235 2.078104 6.444697 2.712139 2.719507 3.178685 2.481309 1.307839 -0.456413 0.407236 3.883869 -13.092384 -5.177739 6.457446 32.007461 -1.197952 1.877157 13.093853 0.000000 0.000000 0.000000 -6.487716 13.828475 -14.375174 23.984359 -35.145855 7.698297 19.259843 -5.745525 -18.848036 0.000000 0.000000 0.000000 -7.125000 0.000000 0.000000 -8.841205 49.653604 1.023990 0.000000 0.000000 0.000000 -0.837665 5.893140 13.986664 -22.139452 -33.119715 -6.668394 -36.684513 -20.709209 -10.705531 0.000000 0.000000 0.000000 7.125000 0.000000 0.000000 -6.675515 16.771199 -4.497139
-12.108146 14.546359 -5.079364 512.779234 -93.918505 -527.625841 0.000000 0.000000 0.000000 -6.107557 -10.417634 -30.686399 20.797397 19.984553 92.331981 -5.652643 -37.812957 16.564903 0.636480 5.104367 14.206429 0.000000 0.000000 0.000000 21.298076 -1.548840 -27.198141 -21.523916 -19.944161 94.459489 -3.262349 3.278570 -33.448578 -0.366508 3.888813 -10.763967 1.261443 3.029308 5.548270 2.736789 4.020045 3.348855 1.892257 1.971292 0.231967 0.621519 5.994599 -11.399819 -7.108009 10.173168 33.655355 -1.499012 3.211170 13.761426 0.000000 0.000000 0.000000 -4.176185 9.988691 -22.599570 25.458105 -36.668542 8.562016 19.638318 -3.052144 -19.562692 0.000000 0.000000 0.000000 -7.125000 0.000000 0.000000 -8.694821 50.449734 1.175484 0.000000 0.000000 0.000000 -6.348759 4.104929 26.584910 -28.030837 -39.144645 -10.143199 -41.613917 -8.065422 -14.120369 0.000000 0.000000 0.000000 7.125000 0.000000 0.000000 -9.385589 11.572006 -7.414928
-12.523303 15.253124 -5.205003 527.259649 -100.884282 -539.364002 0.000000 0.000000 0.000000 -6.701222 -12.633240 -29.083050 18.179632 19.919929 84.670713 -5.222824 -36.723035 18.872189 1.003125 6.373443 17.871833 0.000000 0.000000 0.000000 23.136084 -4.675098 -25.808944 -18.934952 -19.972278 86.884473 -2.912299 -1.529731 -32.879716 -0.214865 2.983566 -8.233090 0.912675 3.653518 4.141074 2.053373 4.859309 2.679368 1.409240 2.409745 0.334126 1.591288 8.470294 -9.177453 -8.356381 14.095514 34.268015 -1.635700 4.926635 14.000869 0.000000 0.000000 0.000000 -1.674696 9.864047 -20.800239 25.684337 -36.895337 8.697451 19.783808 -1.110003 -21.351981 0.000000 0.000000 0.000000 -7.125000 0.000000 0.000000 -9.156466 52.311443 1.659363 0.000000 0.000000 0.000000 -8.306324 3.262305 26.922290 -26.825642 -38.012059 -9.391636 -38.688082 -10.026754 -11.047271 0.000000 0.000000 0.000000 7.125000 0.000000 0.000000 -7.989027 16.029502 -5.522115
-12.929532 16.101574 -5.371585 531.486588 -111.646265 -539.258461 0.000000 0.000000 0.000000 -7.885543 -14.029506 -28.380047 15.057705 19.403364 75.410025 -3.861070 -32.644445 8.310505 0.752083 5.295496 14.809320 0.000000 0.000000 0.000000 26.670916 -6.856516 -25.103732 -15.293387 -19.459363 76.118241 -2.313765 -8.383603 -32.690022 -0.012622 0.704072 -1.934977 0.123256 4.513183 2.267157 1.187202 6.009856 1.509351 1.016374 2.997965 0.167324 1.531984 10.091503 -7.342817 -8.843863 16.806701 34.310287 -1.475681 6.166862 13.889678 0.000000 0.000000 0.000000 0.479889 10.115478 -17.721666 26.931362 -38.113533 9.456803 20.270533 -1.857866 -22.659900 0.000000 0.000000 0.000000 -7.125000 0.000000 0.000000 -9.154998 53.739397 1.980517 0.000000 0.000000 0.000000 -6.425892 7.580121 22.248408 -25.134623 -36.340758 -8.369774 -39.342279 -9.178878 -11.097323 0.000000 0.000000 0.000000 7.125000 0.000000 0.000000 -8.420905 15.849509 -5.865729
-13.331975 16.806201 -5.554963 535.236098 -128.121306 -538.881316 0.000000 0.000000 0.000000 -12.564377 -10.595708 -28.911103 11.312195 18.084041 63.790783 0.435178 -11.051468 -13.150961 0.086050 -1.890958 -5.204356 0.000000 0.000000 0.000000 29.113911 -10.425908 -27.825983 -13.081293 -18.811303 69.377691 -0.666832 -16.721325 -29.054450 -0.009552 -0.606883 1.667820 -1.297872 4.655830 1.394965 0.123952 6.190621 1.499052 0.788908 3.081281 0.607670 1.248549 10.643146 -7.945331 -9.201162 18.192302 34.631170 -1.287286 6.741697 14.312971 0.000000 0.000000 0.000000 2.036994 8.486899 -15.496080 28.597253 -39.660283 10.502743 19.536937 -1.418165 -23.197460 0.000000 0.000000 0.000000 -7.125000 0.000000 0.000000 -10.116916 54.148105 2.293094 0.000000 0.000000 0.000000 -3.098838 10.543618 20.741341 -22.635278 -33.687592 -6.934963 -36.868823 -14.443682 -13.028509 0.000000 0.000000 0.000000 7.125000 0.000000 0.000000 -6.462975 13.921539 -4.749086
